<svg xmlns="http://www.w3.org/2000/svg" xmlns:xlink="http://www.w3.org/1999/xlink" width="569.32" height="569.32" viewBox="0 0 569.32 569.32"><defs><clipPath id="a"><rect width="569.32" height="569.32" fill="none"/></clipPath></defs><title>logo</title><rect width="569.32" height="569.32" fill="#fff"/><g clip-path="url(#a)"><path d="M542-35s-.54,2.64-1.72,7.53c-.58,2.44-1.31,5.45-2.23,9s-2,7.55-3.19,12c-2.44,9-5.61,19.81-9.41,32.12s-8.21,26.12-13.26,41l-7.83,23.19c-2.72,8-5.71,16.18-8.52,24.62-1.42,4.22-2.9,8.48-4.41,12.8s-3,8.66-4.61,13c-2.95,8.83-6,17.83-9.16,26.92-.8,2.27-1.59,4.55-2.4,6.85s-1.49,4.62-2.28,6.93q-2.28,7-4.59,14t-4.77,14.1c-1.55,4.73-3,9.52-4.47,14.31s-3,9.58-4.56,14.39-3.12,9.62-4.47,14.49c-2.78,9.75-5.71,19.47-8.64,29.2-2.75,9.79-5.22,19.63-8,29.37l-2,7.31-1,3.64-.89,3.67c-1.19,4.9-2.33,9.78-3.57,14.64s-2.43,9.7-3.65,14.5c-.62,2.41-1.26,4.81-1.88,7.2s-1.05,4.83-1.58,7.22q-3.19,14.42-6.5,28.42c-.56,2.34-1.11,4.66-1.67,7s-.94,4.65-1.39,7q-1.38,6.94-2.83,13.73c-1.84,9.08-3.93,17.93-5.7,26.6q-2.39,13.07-4.87,25.39c-.84,4.09-1.63,8.13-2.48,12.11s-1.73,7.84-2.35,11.69c-2.73,15.33-5.45,29.45-8.12,42-1.48,6.27-2.29,12.18-3.42,17.63s-2,10.48-3,15-1.79,8.61-2.61,12.15-1.48,6.56-2.07,9c-1.16,4.9-1.88,7.51-1.88,7.51s-.63-2.61-1.62-7.52c-.5-2.47-1.11-5.5-1.76-9.07s-1.4-7.68-2.17-12.29-1.58-9.71-2.44-15.29-1.76-11.61-2.34-18.08c-1.29-12.91-2.45-27.54-3.46-43.54-.34-4-.28-8.08-.39-12.25s-.11-8.4-.15-12.71q-.1-13,0-26.78c0-4.61.42-9.25.62-14s.54-9.48.85-14.31.62-9.7,1-14.63q.27-3.69.53-7.43c.29-2.48.59-4.95.88-7.46,1.18-10,2.49-20.14,3.86-30.42l1.08-7.72c.46-2.58.93-5.15,1.39-7.72,1-5.17,2-10.34,2.92-15.55s2-10.42,3.06-15.65l.77-3.93.94-3.9c.65-2.6,1.29-5.19,1.94-7.79,1.3-5.21,2.57-10.43,3.93-15.63l2-7.82,1-3.92c.32-1.3.68-2.6,1.1-3.88,3.16-10.29,6.32-20.58,9.6-30.78.83-2.55,1.56-5.12,2.49-7.63s1.84-5,2.76-7.51c1.84-5,3.63-10,5.53-14.94s3.67-9.89,5.63-14.74l6.11-14.35c4.15-9.47,8-18.92,12.51-27.87,2.14-4.53,4.36-9,6.5-13.39s4.31-8.77,6.49-13.06,4.47-8.44,6.72-12.55,4.43-8.21,6.64-12.2,4.35-7.95,6.63-11.76,4.46-7.57,6.64-11.27,4.38-7.29,6.51-10.83,4.25-7,6.4-10.34c8.52-13.4,16.46-25.62,23.84-36.19S518.47-4.21,524-11.69c2.76-3.75,5.25-7.09,7.48-10s4.09-5.33,5.66-7.29C540.27-32.9,542-35,542-35Z" fill="#303180"/><path d="M199.28-35s1.74,2.06,4.84,6c1.55,2,3.48,4.4,5.65,7.29s4.71,6.22,7.46,10C222.77-4.21,229.31,5,236.63,15.6s15.3,22.81,23.78,36.22c2.15,3.33,4.25,6.79,6.38,10.35s4.28,7.17,6.48,10.85,4.37,7.46,6.61,11.28,4.42,7.76,6.6,11.76,4.41,8.07,6.62,12.21,4.46,8.32,6.68,12.57,4.32,8.65,6.47,13.07,4.34,8.88,6.48,13.4c4.44,9,8.3,18.42,12.42,27.9l6.07,14.37c1.95,4.84,3.7,9.81,5.59,14.75s3.65,9.94,5.49,14.93l2.74,7.52c.9,2.5,1.63,5.09,2.46,7.64,3.26,10.2,6.38,20.5,9.53,30.79,1.48,5.17,2.7,10.42,4.07,15.61s2.6,10.43,3.88,15.63c2.76,10.37,4.64,20.88,6.63,31.28q1.45,7.8,2.9,15.54c.45,2.57.91,5.15,1.37,7.72s.7,5.16,1.05,7.72c1.34,10.29,2.64,20.43,3.79,30.41l.87,7.46q.27,3.74.51,7.42.54,7.39,1,14.63c.3,4.81.59,9.59.83,14.29.12,2.36.25,4.7.37,7s.25,4.64.22,6.93c.07,9.19,0,18.13,0,26.77-.06,4.32-.07,8.55-.18,12.72s-.06,8.23-.4,12.23c-1,16-2.2,30.6-3.49,43.52-.58,6.45-1.47,12.48-2.34,18.06s-1.62,10.68-2.44,15.29-1.48,8.72-2.17,12.29-1.26,6.6-1.76,9c-1,4.91-1.62,7.53-1.62,7.53s-.72-2.62-1.88-7.5c-.58-2.45-1.3-5.45-2.07-9s-1.67-7.6-2.61-12.13-1.91-9.57-3-15-1.94-11.36-3.4-17.62c-2.66-12.54-5.39-26.64-8.1-42-.62-3.83-1.54-7.72-2.34-11.69s-1.63-8-2.46-12.11c-1.63-8.21-3.27-16.68-4.85-25.39-1.75-8.67-3.82-17.53-5.66-26.6-1-4.52-1.89-9.1-2.79-13.72-.46-2.32-.93-4.64-1.39-7s-1.09-4.63-1.63-7c-2.21-9.33-4.33-18.82-6.45-28.43-.51-2.41-1-4.81-1.55-7.22s-1.24-4.79-1.87-7.2q-1.8-7.23-3.62-14.52c-1.22-4.86-2.36-9.74-3.53-14.64l-.89-3.68-1-3.64c-.66-2.44-1.33-4.87-2-7.31-2.74-9.74-5.19-19.6-7.91-29.38-2.89-9.74-5.8-19.47-8.55-29.22-1.34-4.88-2.89-9.7-4.41-14.5s-3.08-9.59-4.53-14.39-2.91-9.58-4.43-14.31-3.15-9.43-4.72-14.11-3-9.35-4.55-14c-.78-2.31-1.44-4.65-2.26-6.93l-2.38-6.85q-4.71-13.67-9.09-26.94-2.37-6.57-4.58-13.05c-1.5-4.3-3-8.56-4.38-12.8-2.78-8.45-5.77-16.63-8.45-24.62S231.47,74.14,229,66.71c-5-14.89-9.38-28.68-13.19-41s-6.95-23.12-9.38-32.11c-1.23-4.48-2.31-8.49-3.2-12s-1.63-6.52-2.23-9C199.82-32.32,199.28-35,199.28-35Z" fill="#4470b4"/><path d="M27.32,604.29s.54-2.64,1.72-7.53c.58-2.44,1.31-5.45,2.23-9s2-7.55,3.19-12c2.44-9,5.61-19.81,9.41-32.12s8.21-26.12,13.26-41L65,479.45c2.72-8,5.71-16.18,8.52-24.62,1.42-4.22,2.9-8.48,4.41-12.8s3-8.66,4.61-13c3-8.83,6-17.83,9.16-26.92.8-2.27,1.59-4.55,2.4-6.85s1.49-4.62,2.28-6.93q2.28-7,4.59-14t4.77-14.1c1.55-4.73,3-9.52,4.47-14.31s3-9.58,4.56-14.39,3.12-9.62,4.47-14.49c2.78-9.75,5.71-19.47,8.64-29.2,2.75-9.79,5.22-19.63,8-29.37l2-7.31,1-3.64.89-3.67c1.19-4.9,2.33-9.78,3.57-14.64s2.43-9.7,3.65-14.5c.62-2.41,1.26-4.81,1.88-7.2s1-4.83,1.58-7.22q3.19-14.42,6.5-28.42c.56-2.34,1.11-4.66,1.67-7s.94-4.65,1.39-7q1.38-6.94,2.83-13.73c1.84-9.08,3.93-17.93,5.7-26.6q2.39-13.07,4.87-25.39c.84-4.09,1.63-8.13,2.48-12.11s1.73-7.84,2.35-11.69c2.73-15.33,5.45-29.45,8.12-42,1.48-6.27,2.29-12.18,3.42-17.63s2-10.48,3-15,1.79-8.61,2.61-12.15,1.48-6.56,2.07-9c1.16-4.9,1.88-7.51,1.88-7.51s.63,2.61,1.62,7.52c.5,2.47,1.11,5.5,1.76,9.07s1.4,7.68,2.17,12.29,1.58,9.71,2.44,15.29,1.76,11.61,2.34,18.08c1.29,12.91,2.45,27.54,3.46,43.54.34,4,.28,8.08.39,12.25s.11,8.4.15,12.71q.1,13,0,26.78c0,4.61-.42,9.25-.62,14s-.54,9.48-.85,14.31-.62,9.7-1,14.63q-.27,3.69-.53,7.43c-.29,2.48-.59,4.95-.88,7.46-1.18,10-2.49,20.14-3.86,30.42l-1.08,7.72c-.46,2.58-.93,5.15-1.39,7.72-1,5.17-2,10.34-2.92,15.55s-2,10.42-3.06,15.65l-.77,3.93-.94,3.9c-.65,2.6-1.29,5.19-1.94,7.79-1.3,5.21-2.57,10.43-3.93,15.63l-2,7.82-1,3.92c-.32,1.3-.68,2.6-1.1,3.88-3.16,10.29-6.32,20.58-9.6,30.78-.83,2.55-1.56,5.12-2.49,7.63s-1.84,5-2.76,7.51c-1.84,5-3.64,10-5.53,14.94s-3.67,9.89-5.63,14.74l-6.11,14.35c-4.15,9.47-8,18.92-12.51,27.87-2.14,4.53-4.36,9-6.5,13.39s-4.31,8.77-6.49,13.06-4.47,8.44-6.72,12.55-4.43,8.21-6.64,12.2-4.35,8-6.63,11.76-4.46,7.57-6.64,11.27S97.11,503.66,95,507.2s-4.25,7-6.4,10.34c-8.52,13.4-16.46,25.62-23.84,36.19S50.86,573.54,45.33,581c-2.76,3.75-5.25,7.09-7.48,10s-4.09,5.33-5.66,7.29C29.05,602.21,27.32,604.29,27.32,604.29Z" fill="#c20b19"/><path d="M370,604.29s-1.75-2.06-4.85-6c-1.55-2-3.47-4.4-5.64-7.29s-4.71-6.22-7.46-10c-5.54-7.48-12.09-16.66-19.41-27.29s-15.29-22.81-23.77-36.22c-2.15-3.33-4.25-6.79-6.38-10.35s-4.28-7.17-6.48-10.85L289.43,485c-2.27-3.81-4.41-7.76-6.6-11.76s-4.4-8.07-6.61-12.21-4.46-8.32-6.69-12.57-4.32-8.65-6.46-13.07-4.35-8.88-6.48-13.4c-4.44-9-8.3-18.42-12.43-27.9q-3-7.14-6.06-14.37c-1.95-4.84-3.71-9.81-5.59-14.75s-3.65-9.94-5.49-14.94c-.92-2.5-1.83-5-2.74-7.51s-1.64-5.09-2.47-7.64c-3.25-10.2-6.38-20.5-9.52-30.79-1.48-5.17-2.7-10.42-4.07-15.61s-2.6-10.43-3.89-15.63c-2.75-10.37-4.63-20.88-6.63-31.28-1-5.2-1.92-10.38-2.89-15.54l-1.37-7.72c-.35-2.59-.71-5.16-1.05-7.72-1.34-10.29-2.65-20.43-3.79-30.41-.29-2.49-.59-5-.88-7.46s-.34-5-.51-7.42q-.54-7.4-1-14.63c-.31-4.81-.6-9.59-.83-14.29-.13-2.36-.25-4.7-.38-7s-.25-4.64-.22-6.93c-.07-9.19,0-18.13,0-26.77,0-4.32.07-8.55.18-12.72s.05-8.23.4-12.23c1-16,2.2-30.6,3.49-43.52.58-6.45,1.47-12.48,2.34-18.06s1.62-10.68,2.43-15.29,1.48-8.72,2.18-12.29,1.26-6.6,1.75-9c1-4.91,1.62-7.53,1.62-7.53s.72,2.62,1.88,7.5c.59,2.45,1.31,5.45,2.08,9s1.66,7.6,2.6,12.13,1.91,9.57,3,15,1.94,11.36,3.41,17.62c2.66,12.54,5.38,26.64,8.1,42,.62,3.83,1.53,7.72,2.33,11.69s1.64,8,2.47,12.11q2.44,12.31,4.84,25.39c1.76,8.67,3.82,17.53,5.66,26.6q1.44,6.78,2.8,13.72c.45,2.32.93,4.64,1.38,7s1.1,4.63,1.63,7c2.22,9.33,4.34,18.82,6.45,28.43.52,2.41,1,4.81,1.55,7.22s1.25,4.79,1.87,7.2q1.81,7.23,3.63,14.52c1.22,4.86,2.35,9.74,3.53,14.64l.88,3.68,1,3.64c.67,2.44,1.33,4.87,2,7.31,2.74,9.74,5.19,19.6,7.9,29.38,2.9,9.74,5.8,19.47,8.56,29.22,1.34,4.88,2.89,9.7,4.41,14.5s3.07,9.59,4.53,14.39,2.9,9.58,4.43,14.31,3.15,9.43,4.71,14.11l4.56,14c.77,2.31,1.44,4.65,2.25,6.93s1.6,4.58,2.38,6.85q4.72,13.67,9.1,26.94,2.37,6.57,4.58,13c1.49,4.3,3,8.56,4.37,12.8,2.78,8.45,5.77,16.63,8.46,24.62s5.28,15.75,7.78,23.18c5,14.89,9.38,28.68,13.19,41s6.94,23.12,9.38,32.11c1.23,4.48,2.31,8.49,3.2,12s1.63,6.52,2.22,9C369.5,601.65,370,604.29,370,604.29Z" fill="#c7362e"/></g></svg>